<svg width="52" height="50" viewBox="0 0 52 50" fill="none" xmlns="http://www.w3.org/2000/svg">
<path d="M12.1592 39.2446C11.7281 39.1584 11.3831 39.0721 10.9519 38.8997C10.5208 38.7272 10.1758 38.641 9.83088 38.4685C9.05475 38.1235 8.36487 37.6924 7.67498 37.175C6.29521 36.2264 5.17414 34.9328 4.31179 33.3806C3.44943 31.9146 2.93202 30.1899 2.84578 28.5514C2.75954 27.689 2.84578 26.9129 2.93202 26.0505C3.01825 25.6194 3.10449 25.2744 3.19072 24.8432C3.27696 24.4121 3.44943 24.0671 3.53567 23.6359L3.6219 24.8432C3.6219 25.2744 3.70814 25.6194 3.79437 26.0505C3.88061 26.8267 4.05308 27.6028 4.22555 28.2927C4.57049 29.7587 5.08791 31.1385 5.86403 32.432C6.64015 33.7255 7.50251 34.9328 8.62357 36.0539C9.14099 36.5713 9.74464 37.0887 10.3483 37.6061C10.607 37.8648 10.9519 38.1235 11.2969 38.3823L12.1592 39.2446ZM11.9005 42.3491C11.6418 42.5216 11.2969 42.6078 10.9519 42.694C10.607 42.7803 10.3483 42.8665 10.0033 42.8665C9.3997 42.9528 8.70981 43.039 8.01992 42.9528C6.72639 42.8665 5.34662 42.5216 4.22555 41.9179C3.01825 41.3143 1.98342 40.3657 1.29354 39.2446C0.948593 38.7272 0.60365 38.1235 0.344943 37.5199C0.258707 37.2612 0.172471 36.9162 0.0862357 36.5713C0.0862357 36.3126 0 36.0539 0 35.7089C0.258707 35.9677 0.431179 36.2264 0.60365 36.3988C0.862358 36.6575 1.03483 36.9162 1.2073 37.0887C1.63848 37.5199 1.98342 37.9511 2.4146 38.296C3.27696 39.0721 4.13932 39.762 5.17414 40.2794C6.12274 40.7969 7.2438 41.228 8.27863 41.573C8.79605 41.7455 9.3997 41.8317 10.0033 42.0042C10.2621 42.0904 10.607 42.0904 10.8657 42.1766C11.2969 42.2629 11.5556 42.2629 11.9005 42.3491ZM31.3898 0.438525C31.821 0.524761 32.1659 0.697232 32.5971 0.869704C33.0283 1.04218 33.3732 1.21465 33.7182 1.38712C34.4943 1.8183 35.1842 2.24948 35.8741 2.76689C37.2538 3.80172 38.3749 5.18149 39.151 6.73374C39.9272 8.28598 40.3583 10.0107 40.3583 11.6492C40.3583 12.5115 40.2721 13.2877 40.0996 14.15C40.0134 14.5812 39.9272 14.9261 39.7547 15.3573C39.5822 15.7885 39.496 16.1334 39.3235 16.4784L39.2373 15.2711C39.2373 14.8399 39.2373 14.495 39.151 14.0638L38.8923 11.7354C38.6336 10.2694 38.1162 8.80339 37.4263 7.42362C36.7364 6.04385 35.8741 4.83655 34.8392 3.71548C34.3218 3.11183 33.7182 2.59442 33.2008 1.99077C32.9421 1.73206 32.5971 1.47335 32.2522 1.21465L31.3898 0.438525ZM38.8923 0.0935822C39.2373 0.179818 39.496 0.266054 39.7547 0.438525C40.0134 0.524761 40.3583 0.697232 40.617 0.869704C41.1345 1.21465 41.6519 1.55959 42.1693 1.99077C43.1179 2.85313 43.894 3.88795 44.3252 5.09526C44.8426 6.30256 45.0151 7.59609 44.8426 8.88963C44.7564 9.49328 44.5839 10.0969 44.4114 10.7006C44.3252 10.9593 44.1527 11.3042 44.0665 11.5629C43.894 11.8216 43.8078 12.0804 43.5491 12.3391V11.4767V10.6143C43.5491 10.0107 43.4628 9.49328 43.4628 8.97586C43.2903 7.8548 43.1179 6.81997 42.6867 5.87138C42.2555 4.83655 41.7381 3.97419 41.1345 3.0256C40.7895 2.59442 40.4446 2.077 40.0996 1.64583C39.9272 1.38712 39.7547 1.21465 39.496 0.95594C39.3235 0.524761 39.0648 0.266054 38.8923 0.0935822Z" fill="#42ADE2"/>
<path d="M6.89885 12.9427C5.17413 13.7188 4.57048 15.7885 5.34661 17.5132L16.2123 40.1932L22.2488 37.3474L11.3831 14.5812C10.607 12.8565 8.62356 12.0804 6.89885 12.9427ZM35.4429 30.966L41.8243 27.9477L29.4064 2.07702C28.544 0.3523 26.4744 -0.423821 24.6634 0.438536C22.9387 1.30089 22.1626 3.37055 23.0249 5.1815L35.4429 30.966Z" fill="#FFDD67"/>
<path d="M24.7497 0.352293C24.5772 0.438529 24.4047 0.524764 24.2322 0.697236C25.8707 0.266057 27.5954 1.04218 28.3716 2.59442L40.7895 28.4651L41.9106 27.9477L29.4926 2.07701C28.6303 0.266057 26.5606 -0.510065 24.7497 0.352293Z" fill="#EBA352"/>
<path d="M22.2488 37.2612L28.889 34.0705L16.2123 7.68233C15.35 5.87138 13.1078 5.00902 11.2969 5.87138C9.48594 6.73374 8.70981 8.97587 9.57217 10.7868L22.2488 37.2612Z" fill="#FFDD67"/>
<path d="M11.2969 5.95761C11.1244 6.04384 10.952 6.13008 10.7795 6.30255C12.418 5.87137 14.3151 6.64749 15.0913 8.28597L22.9387 24.757L24.8359 25.8781L16.2123 7.76856C15.35 5.87137 13.1941 5.09525 11.2969 5.95761Z" fill="#EBA352"/>
<path d="M27.8541 32.0008L34.4943 28.8101L21.8176 2.42193C20.9553 0.610983 18.7132 -0.251375 16.9022 0.697219C15.0913 1.55958 14.3151 3.80171 15.1775 5.61266L27.8541 32.0008Z" fill="#FFDD67"/>
<path d="M16.9022 0.610989C16.7297 0.697225 16.5573 0.869696 16.3848 0.955932C18.0233 0.524753 19.9205 1.30087 20.6966 2.93935L29.5789 21.5663L31.476 22.6873L21.8176 2.42194C20.9553 0.524753 18.7132 -0.251369 16.9022 0.610989ZM6.89885 12.9427C6.72638 13.0289 6.55391 13.1152 6.38144 13.2876C7.93368 12.8565 9.57216 13.6326 10.262 15.1848L16.7297 28.7238L18.6269 29.8449L11.3831 14.6674C10.607 12.8565 8.62357 12.0803 6.89885 12.9427Z" fill="#EBA352"/>
<path d="M50.7066 10.3557C48.3782 8.54471 44.5839 10.5281 42.6867 16.7371C41.3931 21.0489 41.2207 22.3424 38.4611 23.636L36.9089 20.4452C36.9089 20.4452 12.4179 32.2595 13.3665 34.1567C13.3665 34.1567 16.2985 43.2977 21.3002 47.5233C28.7165 53.9047 46.0499 47.0921 46.826 30.6211C47.2572 21.0489 53.2074 12.3391 50.7066 10.3557Z" fill="#FFDD67"/>
<path d="M50.7066 10.3556C50.2754 10.0107 49.758 9.83823 49.2406 9.752C49.3269 9.83823 49.4993 9.83823 49.5856 9.92447C52.1726 11.9079 49.4993 16.4784 48.0333 20.6177C46.826 23.8947 45.7912 27.2579 45.9637 30.5348C46.6535 44.85 32.2522 51.6626 23.6286 49.0755C32.0797 52.6112 47.7746 45.8848 47.0847 30.966C46.9123 27.689 47.8608 24.4983 49.1544 21.0489C50.5342 16.9096 53.2075 12.3391 50.7066 10.3556Z" fill="#EBA352"/>
<path d="M39.2373 23.291C33.8907 23.8947 26.0432 31.5697 31.5623 39.9345C27.5092 31.4834 34.1494 25.7919 38.3749 23.8084C38.8061 23.4635 39.2373 23.291 39.2373 23.291Z" fill="#EBA352"/>
</svg>
