<svg width="310" height="87" viewBox="0 0 310 87" fill="none" xmlns="http://www.w3.org/2000/svg">
<mask id="mask0_9_329" style="mask-type:luminance" maskUnits="userSpaceOnUse" x="7" y="7" width="76" height="73">
<path d="M82.1689 7.81425H7.31425V79.1857H82.1689V7.81425Z" fill="white"/>
</mask>
<g mask="url(#mask0_9_329)">
<path d="M78.6857 21.9336H10.7978V42.7918H78.6857V21.9336Z" fill="white"/>
<path d="M78.6857 42.7921H10.7978V76.2019H78.6857V42.7921Z" fill="#FFB140"/>
<path d="M76.8833 19.0325H64.7963V13.0991C64.7963 10.037 63.1947 7.81549 60.9881 7.81549H29.6474C27.4408 7.81549 25.8392 10.0386 25.8392 13.0991V19.0325H12.5991C11.1984 19.0344 9.85563 19.5917 8.86518 20.5821C7.87473 21.5726 7.31744 22.9154 7.31552 24.3161V73.9001C7.31755 75.3009 7.87486 76.6436 8.86529 77.6341C9.85572 78.6243 11.1985 79.1817 12.5991 79.1837H76.8833C78.2841 79.1817 79.6268 78.6243 80.6173 77.6341C81.6075 76.6436 82.1649 75.3009 82.1669 73.9001V24.3177C82.1653 22.9167 81.6083 21.5735 80.6177 20.5827C79.6272 19.5919 78.2845 19.0344 76.8833 19.0325ZM30.6441 13.0991C30.6437 12.9384 30.6549 12.7778 30.6775 12.6187H59.9592C59.9818 12.7778 59.9931 12.9384 59.9927 13.0991V19.0325H30.6441V13.0991ZM77.3637 73.9001C77.3637 74.0276 77.3129 74.1498 77.2229 74.2397C77.133 74.3297 77.0108 74.3805 76.8833 74.3805H12.5991C12.4717 74.3805 12.3496 74.3297 12.2596 74.2397C12.1695 74.1498 12.1189 74.0276 12.1188 73.9001V45.3097H34.6519V46.7508C34.6519 46.9023 34.6817 47.0523 34.7396 47.1922C34.7975 47.3322 34.8824 47.4594 34.9895 47.5665C35.0966 47.6736 35.2238 47.7586 35.3637 47.8166C35.5036 47.8746 35.6536 47.9044 35.8051 47.9044H54.8305C54.9821 47.9044 55.1322 47.8746 55.2721 47.8167C55.4121 47.7587 55.5391 47.6738 55.6464 47.5667C55.7533 47.4595 55.8384 47.3323 55.8965 47.1924C55.9542 47.0524 55.984 46.9023 55.984 46.7508V45.3097H77.3637V73.9001ZM77.3637 40.5045H12.1188V24.3177C12.1189 24.1903 12.1695 24.0682 12.2596 23.9782C12.3496 23.8881 12.4717 23.8374 12.5991 23.8373H76.8833C77.0108 23.8374 77.133 23.8881 77.2229 23.9782C77.3129 24.0682 77.3637 24.1903 77.3637 24.3177V40.5045Z" fill="#4059AD"/>
</g>
<path d="M98.726 34.4458H101.94L107.529 48.0914H107.734L113.323 34.4458H116.537V52H114.017V39.2972H113.854L108.677 51.9743H106.586L101.409 39.2886H101.246V52H98.726V34.4458ZM120.182 52V38.8343H122.745V52H120.182ZM121.477 36.8029C121.031 36.8029 120.648 36.6543 120.328 36.3572C120.014 36.0543 119.857 35.6943 119.857 35.2772C119.857 34.8543 120.014 34.4944 120.328 34.1972C120.648 33.8944 121.031 33.7429 121.477 33.7429C121.922 33.7429 122.302 33.8944 122.617 34.1972C122.937 34.4944 123.097 34.8543 123.097 35.2772C123.097 35.6943 122.937 36.0543 122.617 36.3572C122.302 36.6543 121.922 36.8029 121.477 36.8029ZM131.739 52.2657C130.464 52.2657 129.367 51.9771 128.447 51.4C127.533 50.8171 126.83 50.0143 126.339 48.9914C125.847 47.9686 125.602 46.7972 125.602 45.4772C125.602 44.14 125.853 42.96 126.356 41.9372C126.859 40.9086 127.567 40.1058 128.482 39.5286C129.396 38.9515 130.473 38.6629 131.713 38.6629C132.713 38.6629 133.604 38.8486 134.387 39.22C135.17 39.5858 135.802 40.1 136.282 40.7629C136.767 41.4258 137.056 42.2 137.147 43.0857H134.653C134.516 42.4686 134.202 41.9372 133.71 41.4915C133.224 41.0458 132.573 40.8229 131.756 40.8229C131.042 40.8229 130.416 41.0115 129.879 41.3886C129.347 41.76 128.933 42.2915 128.636 42.9829C128.339 43.6686 128.19 44.48 128.19 45.4172C128.19 46.3772 128.336 47.2057 128.627 47.9029C128.919 48.6 129.33 49.14 129.862 49.5229C130.399 49.9057 131.03 50.0971 131.756 50.0971C132.242 50.0971 132.682 50.0086 133.076 49.8314C133.476 49.6486 133.81 49.3886 134.079 49.0514C134.353 48.7143 134.544 48.3086 134.653 47.8343H137.147C137.056 48.6857 136.779 49.4457 136.316 50.1143C135.853 50.7829 135.233 51.3086 134.456 51.6914C133.684 52.0743 132.779 52.2657 131.739 52.2657ZM142.451 44.1829V52H139.888V34.4458H142.417V40.9772H142.579C142.888 40.2686 143.359 39.7058 143.994 39.2886C144.628 38.8715 145.456 38.6629 146.479 38.6629C147.382 38.6629 148.171 38.8486 148.845 39.22C149.525 39.5915 150.051 40.1458 150.422 40.8829C150.799 41.6143 150.988 42.5286 150.988 43.6257V52H148.425V43.9343C148.425 42.9686 148.176 42.22 147.679 41.6886C147.182 41.1515 146.491 40.8829 145.605 40.8829C144.999 40.8829 144.457 41.0115 143.977 41.2686C143.502 41.5258 143.128 41.9029 142.854 42.4C142.585 42.8915 142.451 43.4857 142.451 44.1829ZM158.239 52.2914C157.405 52.2914 156.651 52.1371 155.976 51.8286C155.302 51.5143 154.768 51.06 154.374 50.4657C153.985 49.8714 153.791 49.1429 153.791 48.28C153.791 47.5372 153.934 46.9257 154.219 46.4457C154.505 45.9657 154.891 45.5857 155.376 45.3057C155.862 45.0257 156.405 44.8143 157.005 44.6715C157.605 44.5286 158.216 44.42 158.839 44.3457C159.628 44.2543 160.268 44.18 160.759 44.1229C161.251 44.06 161.608 43.96 161.831 43.8229C162.054 43.6857 162.165 43.4629 162.165 43.1543V43.0943C162.165 42.3457 161.954 41.7658 161.531 41.3543C161.114 40.9429 160.491 40.7372 159.662 40.7372C158.799 40.7372 158.119 40.9286 157.622 41.3115C157.131 41.6886 156.791 42.1086 156.602 42.5715L154.194 42.0229C154.479 41.2229 154.896 40.5772 155.445 40.0858C155.999 39.5886 156.636 39.2286 157.356 39.0058C158.076 38.7772 158.834 38.6629 159.628 38.6629C160.154 38.6629 160.711 38.7258 161.299 38.8515C161.894 38.9715 162.448 39.1943 162.962 39.52C163.482 39.8458 163.908 40.3115 164.239 40.9172C164.571 41.5172 164.736 42.2972 164.736 43.2572V52H162.234V50.2H162.131C161.965 50.5314 161.716 50.8571 161.385 51.1771C161.054 51.4971 160.628 51.7629 160.108 51.9743C159.588 52.1857 158.965 52.2914 158.239 52.2914ZM158.796 50.2343C159.505 50.2343 160.111 50.0943 160.614 49.8143C161.122 49.5343 161.508 49.1686 161.771 48.7172C162.039 48.26 162.174 47.7714 162.174 47.2514V45.5543C162.082 45.6457 161.905 45.7315 161.642 45.8115C161.385 45.8857 161.091 45.9515 160.759 46.0086C160.428 46.06 160.105 46.1086 159.791 46.1543C159.476 46.1943 159.214 46.2286 159.002 46.2572C158.505 46.32 158.051 46.4257 157.639 46.5743C157.234 46.7229 156.908 46.9372 156.662 47.2172C156.422 47.4914 156.302 47.8572 156.302 48.3143C156.302 48.9486 156.536 49.4286 157.005 49.7543C157.474 50.0743 158.071 50.2343 158.796 50.2343ZM173.824 52.2657C172.527 52.2657 171.41 51.9886 170.473 51.4343C169.541 50.8743 168.821 50.0886 168.313 49.0772C167.81 48.06 167.559 46.8686 167.559 45.5029C167.559 44.1543 167.81 42.9657 168.313 41.9372C168.821 40.9086 169.53 40.1058 170.439 39.5286C171.353 38.9515 172.421 38.6629 173.644 38.6629C174.387 38.6629 175.107 38.7858 175.804 39.0315C176.501 39.2772 177.127 39.6629 177.681 40.1886C178.236 40.7143 178.673 41.3972 178.993 42.2372C179.313 43.0715 179.473 44.0857 179.473 45.28V46.1886H169.007V44.2686H176.961C176.961 43.5943 176.824 42.9972 176.55 42.4772C176.276 41.9515 175.89 41.5372 175.393 41.2343C174.901 40.9315 174.324 40.78 173.661 40.78C172.941 40.78 172.313 40.9572 171.776 41.3115C171.244 41.66 170.833 42.1172 170.541 42.6829C170.256 43.2429 170.113 43.8515 170.113 44.5086V46.0086C170.113 46.8886 170.267 47.6372 170.576 48.2543C170.89 48.8714 171.327 49.3429 171.887 49.6686C172.447 49.9886 173.101 50.1486 173.85 50.1486C174.336 50.1486 174.779 50.08 175.179 49.9429C175.579 49.8 175.924 49.5886 176.216 49.3086C176.507 49.0286 176.73 48.6829 176.884 48.2714L179.31 48.7086C179.116 49.4229 178.767 50.0486 178.264 50.5857C177.767 51.1171 177.141 51.5314 176.387 51.8286C175.639 52.12 174.784 52.2657 173.824 52.2657ZM184.879 34.4458V52H182.316V34.4458H184.879ZM190.53 34.4458V36.0915C190.53 36.5772 190.438 37.0886 190.256 37.6258C190.078 38.1572 189.827 38.6686 189.501 39.16C189.176 39.6515 188.793 40.0743 188.353 40.4286L187.084 39.52C187.421 39.0286 187.713 38.5058 187.958 37.9515C188.21 37.3972 188.336 36.7858 188.336 36.1172V34.4458H190.53ZM201.21 42.0486L198.887 42.46C198.79 42.1629 198.636 41.88 198.424 41.6115C198.218 41.3429 197.938 41.1229 197.584 40.9515C197.23 40.78 196.787 40.6943 196.256 40.6943C195.53 40.6943 194.924 40.8572 194.438 41.1829C193.953 41.5029 193.71 41.9172 193.71 42.4257C193.71 42.8657 193.873 43.22 194.198 43.4886C194.524 43.7572 195.05 43.9772 195.776 44.1486L197.867 44.6286C199.078 44.9086 199.981 45.34 200.576 45.9229C201.17 46.5057 201.467 47.2629 201.467 48.1943C201.467 48.9829 201.238 49.6857 200.781 50.3029C200.33 50.9143 199.698 51.3943 198.887 51.7429C198.081 52.0914 197.147 52.2657 196.084 52.2657C194.61 52.2657 193.407 51.9514 192.476 51.3229C191.544 50.6886 190.973 49.7886 190.761 48.6229L193.238 48.2457C193.393 48.8914 193.71 49.38 194.19 49.7114C194.67 50.0372 195.296 50.2 196.067 50.2C196.907 50.2 197.578 50.0257 198.081 49.6772C198.584 49.3229 198.836 48.8914 198.836 48.3829C198.836 47.9714 198.681 47.6257 198.373 47.3457C198.07 47.0657 197.604 46.8543 196.976 46.7114L194.747 46.2229C193.518 45.9429 192.61 45.4972 192.021 44.8857C191.438 44.2743 191.147 43.5 191.147 42.5629C191.147 41.7858 191.364 41.1058 191.798 40.5229C192.233 39.94 192.833 39.4858 193.598 39.16C194.364 38.8286 195.241 38.6629 196.23 38.6629C197.653 38.6629 198.773 38.9715 199.59 39.5886C200.407 40.2 200.947 41.02 201.21 42.0486Z" fill="black"/>
<path d="M210.878 52V34.4458H217.136C218.496 34.4458 219.624 34.6801 220.521 35.1486C221.424 35.6172 222.098 36.2658 222.544 37.0943C222.99 37.9172 223.213 38.8686 223.213 39.9486C223.213 41.0229 222.987 41.9686 222.535 42.7857C222.09 43.5972 221.415 44.2286 220.513 44.68C219.616 45.1315 218.487 45.3572 217.127 45.3572H212.387V43.0772H216.887C217.744 43.0772 218.441 42.9543 218.978 42.7086C219.521 42.4629 219.918 42.1058 220.17 41.6372C220.421 41.1686 220.547 40.6058 220.547 39.9486C220.547 39.2858 220.418 38.7115 220.161 38.2258C219.91 37.7401 219.513 37.3686 218.97 37.1115C218.433 36.8486 217.727 36.7172 216.853 36.7172H213.527V52H210.878ZM219.544 44.08L223.881 52H220.864L216.613 44.08H219.544ZM231.739 52.2657C230.442 52.2657 229.325 51.9886 228.388 51.4343C227.456 50.8743 226.736 50.0886 226.228 49.0772C225.725 48.06 225.473 46.8686 225.473 45.5029C225.473 44.1543 225.725 42.9657 226.228 41.9372C226.736 40.9086 227.445 40.1058 228.353 39.5286C229.268 38.9515 230.336 38.6629 231.559 38.6629C232.302 38.6629 233.022 38.7858 233.719 39.0315C234.416 39.2772 235.042 39.6629 235.596 40.1886C236.15 40.7143 236.588 41.3972 236.908 42.2372C237.228 43.0715 237.388 44.0857 237.388 45.28V46.1886H226.922V44.2686H234.876C234.876 43.5943 234.739 42.9972 234.465 42.4772C234.19 41.9515 233.805 41.5372 233.308 41.2343C232.816 40.9315 232.239 40.78 231.576 40.78C230.856 40.78 230.228 40.9572 229.69 41.3115C229.159 41.66 228.748 42.1172 228.456 42.6829C228.17 43.2429 228.028 43.8515 228.028 44.5086V46.0086C228.028 46.8886 228.182 47.6372 228.49 48.2543C228.805 48.8714 229.242 49.3429 229.802 49.6686C230.362 49.9886 231.016 50.1486 231.765 50.1486C232.25 50.1486 232.693 50.08 233.093 49.9429C233.493 49.8 233.839 49.5886 234.13 49.3086C234.422 49.0286 234.645 48.6829 234.799 48.2714L237.225 48.7086C237.03 49.4229 236.682 50.0486 236.179 50.5857C235.682 51.1171 235.056 51.5314 234.302 51.8286C233.553 52.12 232.699 52.2657 231.739 52.2657ZM250.097 42.0486L247.774 42.46C247.677 42.1629 247.523 41.88 247.311 41.6115C247.105 41.3429 246.825 41.1229 246.471 40.9515C246.117 40.78 245.674 40.6943 245.143 40.6943C244.417 40.6943 243.811 40.8572 243.325 41.1829C242.84 41.5029 242.597 41.9172 242.597 42.4257C242.597 42.8657 242.76 43.22 243.085 43.4886C243.411 43.7572 243.937 43.9772 244.663 44.1486L246.754 44.6286C247.965 44.9086 248.868 45.34 249.463 45.9229C250.057 46.5057 250.354 47.2629 250.354 48.1943C250.354 48.9829 250.125 49.6857 249.668 50.3029C249.217 50.9143 248.585 51.3943 247.774 51.7429C246.968 52.0914 246.034 52.2657 244.971 52.2657C243.497 52.2657 242.294 51.9514 241.363 51.3229C240.431 50.6886 239.86 49.7886 239.648 48.6229L242.125 48.2457C242.28 48.8914 242.597 49.38 243.077 49.7114C243.557 50.0372 244.183 50.2 244.954 50.2C245.794 50.2 246.465 50.0257 246.968 49.6772C247.471 49.3229 247.723 48.8914 247.723 48.3829C247.723 47.9714 247.568 47.6257 247.26 47.3457C246.957 47.0657 246.491 46.8543 245.863 46.7114L243.634 46.2229C242.405 45.9429 241.497 45.4972 240.908 44.8857C240.325 44.2743 240.034 43.5 240.034 42.5629C240.034 41.7858 240.251 41.1058 240.685 40.5229C241.12 39.94 241.72 39.4858 242.485 39.16C243.251 38.8286 244.128 38.6629 245.117 38.6629C246.54 38.6629 247.66 38.9715 248.477 39.5886C249.294 40.2 249.834 41.02 250.097 42.0486ZM261.512 46.54V38.8343H264.083V52H261.563V49.72H261.426C261.123 50.4229 260.637 51.0086 259.969 51.4771C259.306 51.94 258.48 52.1714 257.492 52.1714C256.646 52.1714 255.898 51.9857 255.246 51.6143C254.6 51.2371 254.092 50.68 253.72 49.9429C253.355 49.2057 253.172 48.2943 253.172 47.2086V38.8343H255.735V46.9C255.735 47.7972 255.983 48.5114 256.48 49.0429C256.978 49.5743 257.623 49.84 258.418 49.84C258.898 49.84 259.375 49.72 259.849 49.48C260.329 49.24 260.726 48.8772 261.04 48.3914C261.36 47.9057 261.517 47.2886 261.512 46.54ZM267.527 52V38.8343H269.987V40.9772H270.15C270.424 40.2515 270.872 39.6858 271.495 39.28C272.118 38.8686 272.864 38.6629 273.732 38.6629C274.612 38.6629 275.35 38.8686 275.944 39.28C276.544 39.6915 276.987 40.2572 277.272 40.9772H277.41C277.724 40.2743 278.224 39.7143 278.91 39.2972C279.595 38.8743 280.412 38.6629 281.361 38.6629C282.555 38.6629 283.53 39.0372 284.284 39.7858C285.044 40.5343 285.424 41.6629 285.424 43.1715V52H282.861V43.4115C282.861 42.52 282.618 41.8743 282.132 41.4743C281.647 41.0743 281.067 40.8743 280.392 40.8743C279.558 40.8743 278.91 41.1315 278.447 41.6458C277.984 42.1543 277.752 42.8086 277.752 43.6086V52H275.198V43.2486C275.198 42.5343 274.975 41.96 274.53 41.5258C274.084 41.0915 273.504 40.8743 272.79 40.8743C272.304 40.8743 271.855 41.0029 271.444 41.26C271.038 41.5115 270.71 41.8629 270.458 42.3143C270.212 42.7657 270.09 43.2886 270.09 43.8829V52H267.527ZM294.533 52.2657C293.236 52.2657 292.119 51.9886 291.182 51.4343C290.25 50.8743 289.53 50.0886 289.022 49.0772C288.519 48.06 288.267 46.8686 288.267 45.5029C288.267 44.1543 288.519 42.9657 289.022 41.9372C289.53 40.9086 290.239 40.1058 291.147 39.5286C292.062 38.9515 293.13 38.6629 294.353 38.6629C295.096 38.6629 295.816 38.7858 296.513 39.0315C297.21 39.2772 297.836 39.6629 298.39 40.1886C298.944 40.7143 299.382 41.3972 299.702 42.2372C300.022 43.0715 300.182 44.0857 300.182 45.28V46.1886H289.716V44.2686H297.67C297.67 43.5943 297.533 42.9972 297.259 42.4772C296.985 41.9515 296.599 41.5372 296.102 41.2343C295.61 40.9315 295.033 40.78 294.37 40.78C293.65 40.78 293.022 40.9572 292.485 41.3115C291.953 41.66 291.542 42.1172 291.25 42.6829C290.965 43.2429 290.822 43.8515 290.822 44.5086V46.0086C290.822 46.8886 290.976 47.6372 291.285 48.2543C291.599 48.8714 292.036 49.3429 292.596 49.6686C293.156 49.9886 293.81 50.1486 294.559 50.1486C295.045 50.1486 295.487 50.08 295.887 49.9429C296.287 49.8 296.633 49.5886 296.925 49.3086C297.216 49.0286 297.439 48.6829 297.593 48.2714L300.019 48.7086C299.824 49.4229 299.476 50.0486 298.973 50.5857C298.476 51.1171 297.85 51.5314 297.096 51.8286C296.347 52.12 295.493 52.2657 294.533 52.2657Z" fill="#FFB140"/>
</svg>
