<svg width="76" height="73" viewBox="0 0 76 73" fill="none" xmlns="http://www.w3.org/2000/svg">
<mask id="mask0_9_325" style="mask-type:luminance" maskUnits="userSpaceOnUse" x="0" y="0" width="76" height="73">
<path d="M75.1689 0.814255H0.314255V72.1857H75.1689V0.814255Z" fill="white"/>
</mask>
<g mask="url(#mask0_9_325)">
<path d="M71.6857 14.9336H3.79782V35.7918H71.6857V14.9336Z" fill="white"/>
<path d="M71.6857 35.7921H3.79782V69.2019H71.6857V35.7921Z" fill="#FFB140"/>
<path d="M69.8833 12.0325H57.7963V6.09909C57.7963 3.03703 56.1947 0.815491 53.9881 0.815491H22.6474C20.4408 0.815491 18.8392 3.03864 18.8392 6.09909V12.0325H5.59912C4.19842 12.0344 2.85563 12.5917 1.86518 13.5821C0.874725 14.5726 0.317442 15.9154 0.315521 17.3161V66.9001C0.317548 68.3009 0.874859 69.6436 1.86529 70.6341C2.85572 71.6243 4.19845 72.1817 5.59912 72.1837H69.8833C71.2841 72.1817 72.6268 71.6243 73.6173 70.6341C74.6075 69.6436 75.1649 68.3009 75.1669 66.9001V17.3177C75.1653 15.9167 74.6083 14.5735 73.6177 13.5827C72.6272 12.5919 71.2845 12.0344 69.8833 12.0325ZM23.6441 6.09909C23.6437 5.9384 23.6549 5.77784 23.6775 5.61872H52.9592C52.9818 5.77784 52.9931 5.9384 52.9927 6.09909V12.0325H23.6441V6.09909ZM70.3637 66.9001C70.3637 67.0276 70.3129 67.1498 70.2229 67.2397C70.133 67.3297 70.0108 67.3805 69.8833 67.3805H5.59912C5.47175 67.3805 5.34962 67.3297 5.25956 67.2397C5.16949 67.1498 5.11888 67.0276 5.11875 66.9001V38.3097H27.6519V39.7508C27.6519 39.9023 27.6817 40.0523 27.7396 40.1922C27.7975 40.3322 27.8824 40.4594 27.9895 40.5665C28.0966 40.6736 28.2238 40.7586 28.3637 40.8166C28.5036 40.8746 28.6536 40.9044 28.8051 40.9044H47.8305C47.9821 40.9044 48.1322 40.8746 48.2721 40.8167C48.4121 40.7587 48.5391 40.6738 48.6464 40.5667C48.7533 40.4595 48.8384 40.3323 48.8965 40.1924C48.9542 40.0524 48.984 39.9023 48.984 39.7508V38.3097H70.3637V66.9001ZM70.3637 33.5045H5.11875V17.3177C5.11888 17.1903 5.16949 17.0682 5.25956 16.9782C5.34962 16.8881 5.47175 16.8374 5.59912 16.8373H69.8833C70.0108 16.8374 70.133 16.8881 70.2229 16.9782C70.3129 17.0682 70.3637 17.1903 70.3637 17.3177V33.5045Z" fill="#4059AD"/>
</g>
</svg>
